<svg width="191.231" height="35.215" viewBox="0 0 191.231 35.215" xmlns="http://www.w3.org/2000/svg"><g id="svgGroup" stroke-linecap="round" fill-rule="evenodd" font-size="9pt" stroke="#ebebef" stroke-width="0.25mm" fill="#ebebef" style="stroke:#ebebef;stroke-width:0.25mm;fill:#ebebef">
    <path d="M 67.578 34.824 L 64.922 34.824 L 64.922 0.449 L 68.184 0.449 L 73.594 29.317 L 78.809 0.449 L 82.07 0.449 L 82.07 34.824 L 79.434 34.824 L 79.434 20.098 L 79.883 6.25 L 74.98 34.082 L 72.207 34.082 L 67.129 6.25 L 67.578 20.098 L 67.578 34.824 Z M 136.523 34.824 L 133.789 34.824 L 133.789 0.449 L 135.82 0.449 L 144.258 27.031 L 143.965 15.195 L 143.965 0.449 L 146.504 0.449 L 146.504 34.824 L 144.238 34.824 L 136.328 8.926 L 136.523 18.223 L 136.523 34.824 Z M 101.836 24.434 L 101.836 10.508 A 40.075 40.075 0 0 1 101.912 7.994 A 32.405 32.405 0 0 1 102.051 6.397 Q 102.266 4.492 102.9 3.057 A 5.218 5.218 0 0 1 104.027 1.41 A 4.941 4.941 0 0 1 104.775 0.811 Q 105.782 0.152 107.337 0.029 A 9.446 9.446 0 0 1 108.086 0 A 8.324 8.324 0 0 1 109.324 0.086 Q 109.965 0.183 110.486 0.388 A 3.793 3.793 0 0 1 111.27 0.801 A 4.552 4.552 0 0 1 112.803 2.646 A 5.67 5.67 0 0 1 112.969 3.037 A 10.255 10.255 0 0 1 113.432 4.666 A 14.161 14.161 0 0 1 113.662 6.366 A 48.731 48.731 0 0 1 113.784 8.727 A 60.938 60.938 0 0 1 113.809 10.469 L 113.809 13.34 L 110.84 13.34 L 110.84 8.027 A 22.013 22.013 0 0 0 110.793 6.546 Q 110.683 4.92 110.313 3.897 Q 109.902 2.764 108.722 2.513 A 3.53 3.53 0 0 0 107.988 2.442 A 2.949 2.949 0 0 0 106.905 2.63 Q 106.137 2.931 105.68 3.713 A 3.64 3.64 0 0 0 105.449 4.19 Q 104.916 5.516 104.787 8.289 A 41.316 41.316 0 0 0 104.746 10.195 L 104.746 24.219 A 58.945 58.945 0 0 0 104.783 26.376 Q 104.859 28.444 105.093 29.793 A 9.477 9.477 0 0 0 105.332 30.85 A 3.433 3.433 0 0 0 105.755 31.786 Q 106.381 32.726 107.59 32.821 A 3.567 3.567 0 0 0 107.871 32.832 A 2.609 2.609 0 0 0 108.947 32.621 Q 109.921 32.186 110.322 30.85 A 9.882 9.882 0 0 0 110.597 29.611 Q 110.815 28.273 110.885 26.281 A 57.881 57.881 0 0 0 110.918 24.258 L 110.918 19.922 L 107.969 19.922 L 107.969 17.442 L 113.809 17.442 L 113.809 34.824 L 111.895 34.824 L 111.582 32.832 A 5.887 5.887 0 0 1 110.834 33.843 A 4.618 4.618 0 0 1 109.932 34.6 Q 109.138 35.105 107.918 35.195 A 7.495 7.495 0 0 1 107.363 35.215 A 5.125 5.125 0 0 1 105.535 34.905 Q 104.226 34.409 103.404 33.119 A 5.947 5.947 0 0 1 103.164 32.705 Q 102.064 30.627 101.875 26.318 A 43.069 43.069 0 0 1 101.836 24.434 Z M 46.699 25.996 L 46.699 0.449 L 49.609 0.449 L 49.609 25.899 A 53.227 53.227 0 0 0 49.631 27.474 Q 49.654 28.24 49.7 28.905 A 25.267 25.267 0 0 0 49.766 29.678 A 6.683 6.683 0 0 0 49.914 30.575 Q 50.023 31.028 50.194 31.392 A 2.889 2.889 0 0 0 50.596 32.031 A 2.045 2.045 0 0 0 51.482 32.632 Q 51.825 32.757 52.252 32.804 A 4.954 4.954 0 0 0 52.793 32.832 Q 53.709 32.832 54.308 32.55 A 1.869 1.869 0 0 0 54.98 32.031 A 2.944 2.944 0 0 0 55.419 31.258 Q 55.564 30.89 55.651 30.439 A 6.964 6.964 0 0 0 55.752 29.688 Q 55.839 28.627 55.867 27.243 A 67.358 67.358 0 0 0 55.879 25.918 L 55.879 0.449 L 58.789 0.449 L 58.789 25.996 A 32.994 32.994 0 0 1 58.726 28.102 Q 58.663 29.088 58.536 29.933 A 14.582 14.582 0 0 1 58.301 31.162 Q 57.882 32.912 56.868 33.901 A 4.125 4.125 0 0 1 56.514 34.209 A 4.278 4.278 0 0 1 55.187 34.888 Q 54.166 35.215 52.773 35.215 A 9.415 9.415 0 0 1 51.368 35.117 Q 50.62 35.004 50.016 34.76 A 4.187 4.187 0 0 1 49.033 34.209 Q 47.784 33.256 47.263 31.375 A 8.28 8.28 0 0 1 47.207 31.162 A 14.963 14.963 0 0 1 46.898 29.479 Q 46.699 27.949 46.699 25.996 Z M 162.109 25.996 L 162.109 0.449 L 165.02 0.449 L 165.02 25.899 A 53.227 53.227 0 0 0 165.042 27.474 Q 165.064 28.24 165.111 28.905 A 25.267 25.267 0 0 0 165.176 29.678 A 6.683 6.683 0 0 0 165.324 30.575 Q 165.433 31.028 165.604 31.392 A 2.889 2.889 0 0 0 166.006 32.031 A 2.045 2.045 0 0 0 166.892 32.632 Q 167.235 32.757 167.662 32.804 A 4.954 4.954 0 0 0 168.203 32.832 Q 169.119 32.832 169.718 32.55 A 1.869 1.869 0 0 0 170.391 32.031 A 2.944 2.944 0 0 0 170.829 31.258 Q 170.974 30.89 171.061 30.439 A 6.964 6.964 0 0 0 171.162 29.688 Q 171.249 28.627 171.277 27.243 A 67.358 67.358 0 0 0 171.289 25.918 L 171.289 0.449 L 174.199 0.449 L 174.199 25.996 A 32.994 32.994 0 0 1 174.136 28.102 Q 174.073 29.088 173.946 29.933 A 14.582 14.582 0 0 1 173.711 31.162 Q 173.292 32.912 172.278 33.901 A 4.125 4.125 0 0 1 171.924 34.209 A 4.278 4.278 0 0 1 170.597 34.888 Q 169.576 35.215 168.184 35.215 A 9.415 9.415 0 0 1 166.778 35.117 Q 166.03 35.004 165.426 34.76 A 4.187 4.187 0 0 1 164.443 34.209 Q 163.195 33.256 162.673 31.375 A 8.28 8.28 0 0 1 162.617 31.162 A 14.963 14.963 0 0 1 162.308 29.479 Q 162.109 27.949 162.109 25.996 Z M 30.352 24.609 L 30.352 21.055 L 33.203 21.055 L 33.203 24.551 A 49.304 49.304 0 0 0 33.243 26.603 Q 33.325 28.573 33.579 29.874 A 8.549 8.549 0 0 0 33.838 30.899 Q 34.392 32.587 36.012 32.801 A 3.759 3.759 0 0 0 36.504 32.832 A 4.55 4.55 0 0 0 37.237 32.777 Q 37.615 32.715 37.913 32.584 A 1.786 1.786 0 0 0 38.545 32.129 A 2.493 2.493 0 0 0 38.942 31.489 Q 39.219 30.862 39.316 29.922 A 23.814 23.814 0 0 0 39.399 28.892 Q 39.473 27.661 39.473 25.996 A 17.617 17.617 0 0 0 39.396 24.3 Q 39.318 23.494 39.16 22.813 A 7.56 7.56 0 0 0 38.818 21.709 A 7.319 7.319 0 0 0 37.917 20.113 Q 37.331 19.313 36.484 18.535 L 34.453 16.66 A 25.022 25.022 0 0 1 33.496 15.733 A 32.738 32.738 0 0 1 32.5 14.668 A 10.329 10.329 0 0 1 31.104 12.666 A 12.049 12.049 0 0 1 30.781 12.022 Q 30.078 10.508 30.078 8.535 A 23.876 23.876 0 0 1 30.175 6.332 Q 30.276 5.236 30.485 4.275 A 14.28 14.28 0 0 1 30.518 4.131 Q 30.957 2.207 32.256 1.104 A 4.084 4.084 0 0 1 33.583 0.369 Q 34.183 0.161 34.921 0.071 A 10.102 10.102 0 0 1 36.152 0 Q 37.559 0 38.549 0.361 A 3.882 3.882 0 0 1 39.434 0.811 A 4.445 4.445 0 0 1 41.029 2.823 A 5.506 5.506 0 0 1 41.123 3.067 A 10.31 10.31 0 0 1 41.541 4.629 Q 41.699 5.469 41.758 6.426 A 60.762 60.762 0 0 1 41.846 8.418 A 76.012 76.012 0 0 1 41.875 10.567 L 41.875 12.5 L 39.277 12.5 L 39.277 10.352 Q 39.277 7.744 39.085 6.124 A 14.232 14.232 0 0 0 38.994 5.479 Q 38.711 3.77 38.047 3.106 A 2.177 2.177 0 0 0 37.026 2.539 Q 36.683 2.451 36.276 2.442 A 4.175 4.175 0 0 0 36.191 2.442 A 4.689 4.689 0 0 0 35.431 2.5 Q 35.019 2.567 34.68 2.715 A 2.485 2.485 0 0 0 34.346 2.891 A 1.932 1.932 0 0 0 33.78 3.452 Q 33.606 3.709 33.473 4.045 A 4.571 4.571 0 0 0 33.311 4.541 A 7.252 7.252 0 0 0 33.148 5.352 Q 32.988 6.427 32.988 8.047 Q 32.988 9.18 33.165 10.01 A 4.968 4.968 0 0 0 33.359 10.693 Q 33.73 11.699 34.492 12.52 Q 35.016 13.084 35.715 13.795 A 107.12 107.12 0 0 0 36.387 14.473 L 38.281 16.348 A 14.977 14.977 0 0 1 41.03 19.976 A 14.042 14.042 0 0 1 41.338 20.586 A 10.655 10.655 0 0 1 42.13 23.001 Q 42.364 24.128 42.422 25.425 A 19.656 19.656 0 0 1 42.441 26.309 A 26.152 26.152 0 0 1 42.355 28.483 Q 42.262 29.599 42.068 30.579 A 15.377 15.377 0 0 1 41.992 30.938 A 6.812 6.812 0 0 1 41.461 32.477 A 5.06 5.06 0 0 1 40.234 34.082 Q 38.926 35.215 36.328 35.215 Q 34.277 35.215 33.076 34.385 A 4.889 4.889 0 0 1 31.387 32.329 A 5.961 5.961 0 0 1 31.289 32.1 A 10.315 10.315 0 0 1 30.784 30.428 A 14.157 14.157 0 0 1 30.527 28.721 A 42.222 42.222 0 0 1 30.376 26.213 A 50.851 50.851 0 0 1 30.352 24.609 Z M 179.141 24.609 L 179.141 21.055 L 181.992 21.055 L 181.992 24.551 A 49.304 49.304 0 0 0 182.032 26.603 Q 182.114 28.573 182.368 29.874 A 8.549 8.549 0 0 0 182.627 30.899 Q 183.181 32.587 184.801 32.801 A 3.759 3.759 0 0 0 185.293 32.832 A 4.55 4.55 0 0 0 186.026 32.777 Q 186.404 32.715 186.702 32.584 A 1.786 1.786 0 0 0 187.334 32.129 A 2.493 2.493 0 0 0 187.731 31.489 Q 188.008 30.862 188.105 29.922 A 23.814 23.814 0 0 0 188.188 28.892 Q 188.262 27.661 188.262 25.996 A 17.617 17.617 0 0 0 188.185 24.3 Q 188.107 23.494 187.949 22.813 A 7.56 7.56 0 0 0 187.607 21.709 A 7.319 7.319 0 0 0 186.706 20.113 Q 186.12 19.313 185.273 18.535 L 183.242 16.66 A 25.022 25.022 0 0 1 182.285 15.733 A 32.738 32.738 0 0 1 181.289 14.668 A 10.329 10.329 0 0 1 179.893 12.666 A 12.049 12.049 0 0 1 179.57 12.022 Q 178.867 10.508 178.867 8.535 A 23.876 23.876 0 0 1 178.964 6.332 Q 179.065 5.236 179.274 4.275 A 14.28 14.28 0 0 1 179.307 4.131 Q 179.746 2.207 181.045 1.104 A 4.084 4.084 0 0 1 182.372 0.369 Q 182.973 0.161 183.71 0.071 A 10.102 10.102 0 0 1 184.941 0 Q 186.348 0 187.338 0.361 A 3.882 3.882 0 0 1 188.223 0.811 A 4.445 4.445 0 0 1 189.818 2.823 A 5.506 5.506 0 0 1 189.912 3.067 A 10.31 10.31 0 0 1 190.33 4.629 Q 190.488 5.469 190.547 6.426 A 60.762 60.762 0 0 1 190.635 8.418 A 76.012 76.012 0 0 1 190.664 10.567 L 190.664 12.5 L 188.066 12.5 L 188.066 10.352 Q 188.066 7.744 187.874 6.124 A 14.232 14.232 0 0 0 187.783 5.479 Q 187.5 3.77 186.836 3.106 A 2.177 2.177 0 0 0 185.815 2.539 Q 185.472 2.451 185.065 2.442 A 4.175 4.175 0 0 0 184.98 2.442 A 4.689 4.689 0 0 0 184.22 2.5 Q 183.808 2.567 183.469 2.715 A 2.485 2.485 0 0 0 183.135 2.891 A 1.932 1.932 0 0 0 182.569 3.452 Q 182.395 3.709 182.262 4.045 A 4.571 4.571 0 0 0 182.1 4.541 A 7.252 7.252 0 0 0 181.937 5.352 Q 181.777 6.427 181.777 8.047 Q 181.777 9.18 181.954 10.01 A 4.968 4.968 0 0 0 182.148 10.693 Q 182.52 11.699 183.281 12.52 Q 183.805 13.084 184.504 13.795 A 107.12 107.12 0 0 0 185.176 14.473 L 187.07 16.348 A 14.977 14.977 0 0 1 189.819 19.976 A 14.042 14.042 0 0 1 190.127 20.586 A 10.655 10.655 0 0 1 190.919 23.001 Q 191.153 24.128 191.211 25.425 A 19.656 19.656 0 0 1 191.23 26.309 A 26.152 26.152 0 0 1 191.144 28.483 Q 191.051 29.599 190.857 30.579 A 15.377 15.377 0 0 1 190.781 30.938 A 6.812 6.812 0 0 1 190.25 32.477 A 5.06 5.06 0 0 1 189.023 34.082 Q 187.715 35.215 185.117 35.215 Q 183.066 35.215 181.865 34.385 A 4.889 4.889 0 0 1 180.176 32.329 A 5.961 5.961 0 0 1 180.078 32.1 A 10.315 10.315 0 0 1 179.573 30.428 A 14.157 14.157 0 0 1 179.316 28.721 A 42.222 42.222 0 0 1 179.165 26.213 A 50.851 50.851 0 0 1 179.141 24.609 Z M 2.91 34.824 L 0 34.824 L 0 0.449 L 5.84 0.449 A 13.923 13.923 0 0 1 7.264 0.517 Q 8.717 0.667 9.608 1.149 A 3.373 3.373 0 0 1 9.902 1.328 A 3.729 3.729 0 0 1 11.214 2.935 A 5.511 5.511 0 0 1 11.572 4.082 A 16.057 16.057 0 0 1 11.789 5.5 Q 11.953 6.978 11.953 8.926 A 26.419 26.419 0 0 1 11.886 10.863 Q 11.813 11.859 11.659 12.703 A 10.836 10.836 0 0 1 11.27 14.238 Q 10.586 16.25 8.789 16.758 A 2.795 2.795 0 0 1 9.755 17.088 A 2.561 2.561 0 0 1 10.41 17.627 A 2.885 2.885 0 0 1 10.8 18.215 Q 11.145 18.888 11.357 19.951 A 17.144 17.144 0 0 1 11.54 21.078 Q 11.719 22.448 11.807 24.395 A 99.563 99.563 0 0 1 11.862 25.908 Q 11.929 28.165 11.933 31.187 A 296.321 296.321 0 0 1 11.934 31.621 L 11.934 32.451 A 11.558 11.558 0 0 0 11.938 32.796 A 8.47 8.47 0 0 0 11.953 33.106 Q 11.973 33.399 12.021 33.662 A 6.313 6.313 0 0 0 12.111 34.069 A 7.24 7.24 0 0 0 12.148 34.209 A 4.644 4.644 0 0 0 12.241 34.505 A 6.276 6.276 0 0 0 12.363 34.824 L 9.473 34.824 A 2.195 2.195 0 0 1 9.368 34.577 Q 9.324 34.452 9.288 34.309 A 3.664 3.664 0 0 1 9.277 34.268 Q 9.199 33.945 9.15 33.32 Q 9.102 32.695 9.082 31.563 A 145.211 145.211 0 0 1 9.073 30.951 Q 9.06 29.966 9.053 28.574 Q 9.043 26.764 9.043 24.079 A 1585.643 1585.643 0 0 1 9.043 23.945 Q 9.043 21.582 8.936 20.352 Q 8.872 19.625 8.625 19.16 A 1.546 1.546 0 0 0 8.193 18.643 Q 7.559 18.164 5.996 18.067 L 2.91 17.871 L 2.91 34.824 Z M 26.582 34.824 L 17.559 34.824 L 17.559 0.449 L 26.641 0.449 L 26.641 2.715 L 20.469 2.715 L 20.469 16.152 L 26.27 16.152 L 26.27 18.516 L 20.469 18.516 L 20.469 32.52 L 26.582 32.52 L 26.582 34.824 Z M 97.461 34.824 L 88.438 34.824 L 88.438 0.449 L 97.52 0.449 L 97.52 2.715 L 91.348 2.715 L 91.348 16.152 L 97.148 16.152 L 97.148 18.516 L 91.348 18.516 L 91.348 32.52 L 97.461 32.52 L 97.461 34.824 Z M 128.828 34.824 L 119.805 34.824 L 119.805 0.449 L 128.887 0.449 L 128.887 2.715 L 122.715 2.715 L 122.715 16.152 L 128.516 16.152 L 128.516 18.516 L 122.715 18.516 L 122.715 32.52 L 128.828 32.52 L 128.828 34.824 Z M 155.938 34.824 L 153.027 34.824 L 153.027 0.449 L 155.938 0.449 L 155.938 34.824 Z M 2.891 2.871 L 2.891 15.918 L 5.938 15.918 A 5.715 5.715 0 0 0 6.66 15.875 Q 7.397 15.781 7.861 15.479 Q 8.535 15.039 8.789 13.565 Q 9.043 12.09 9.043 9.004 L 9.043 8.75 A 47.113 47.113 0 0 0 9.029 7.561 Q 8.998 6.321 8.896 5.484 A 9.356 9.356 0 0 0 8.818 4.961 Q 8.594 3.711 7.969 3.291 A 2.118 2.118 0 0 0 7.407 3.031 Q 7.132 2.946 6.797 2.907 A 5.477 5.477 0 0 0 6.152 2.871 L 2.891 2.871 Z" vector-effect="non-scaling-stroke"/></g>
</svg>